<?xml version="1.0" encoding="utf-8"?>
<!-- Generator: Adobe Illustrator 21.1.0, SVG Export Plug-In . SVG Version: 6.00 Build 0)  -->
<svg version="1.1" id="Layer_1" xmlns="http://www.w3.org/2000/svg" xmlns:xlink="http://www.w3.org/1999/xlink" x="0px" y="0px"
	 viewBox="0 0 522.2 125.8" style="enable-background:new 0 0 522.2 125.8;" xml:space="preserve">
<style type="text/css">
	.st0{fill:#4F245E;}
</style>
<g>
	<path class="st0" d="M70.3,102.8H73v-6.3h7.8V94H73v-4.2h8.8v-2.5H70.3V102.8L70.3,102.8z M94.3,103.1c4.1,0,6.7-2.3,6.7-7v-8.8
		h-2.7v8.9c0,2.9-1.5,4.3-3.9,4.3c-2.4,0-3.9-1.6-3.9-4.4v-8.8h-2.7v8.9C87.7,100.7,90.3,103.1,94.3,103.1L94.3,103.1z M108.2,102.8
		h2.7v-5.4h3.4l3.8,5.4h3.2l-4.2-5.9c2.2-0.6,3.7-2.2,3.7-4.7v0c0-1.4-0.5-2.5-1.3-3.4c-1-1-2.5-1.6-4.5-1.6h-6.9V102.8L108.2,102.8
		z M111,95v-5.2h4c2,0,3.2,0.9,3.2,2.6v0c0,1.6-1.2,2.6-3.2,2.6H111L111,95z M127.6,102.8h2.7V91.8l8.6,11.1h2.3V87.3h-2.7V98
		l-8.3-10.7h-2.5V102.8L127.6,102.8z M148.6,102.8h2.7V87.3h-2.7V102.8L148.6,102.8z M162.3,102.8h2.8v-13h4.9v-2.5h-12.6v2.5h4.9
		V102.8L162.3,102.8z M182.4,103.1c4.1,0,6.7-2.3,6.7-7v-8.8h-2.7v8.9c0,2.9-1.5,4.3-3.9,4.3c-2.4,0-3.9-1.6-3.9-4.4v-8.8h-2.7v8.9
		C175.7,100.7,178.3,103.1,182.4,103.1L182.4,103.1z M196.3,102.8h2.7v-5.4h3.4l3.8,5.4h3.2l-4.2-5.9c2.2-0.6,3.7-2.2,3.7-4.7v0
		c0-1.4-0.5-2.5-1.3-3.4c-1-1-2.5-1.6-4.5-1.6h-6.9V102.8L196.3,102.8z M199,95v-5.2h4c2,0,3.2,0.9,3.2,2.6v0c0,1.6-1.2,2.6-3.2,2.6
		H199L199,95z M215.7,102.8h11.6v-2.4h-8.9v-4.2h7.8v-2.4h-7.8v-4h8.8v-2.4h-11.5V102.8L215.7,102.8z M244.2,103.8h2.2V86.1h-2.2
		V103.8L244.2,103.8z M264.1,102.8h2.7V91.7l4.9,7.3h0.1l4.9-7.3v11.1h2.7V87.3h-2.9l-4.7,7.3l-4.7-7.3h-2.9V102.8L264.1,102.8z
		 M285.2,102.8h2.8l1.6-3.8h7.3l1.6,3.8h2.9l-6.8-15.7H292L285.2,102.8L285.2,102.8z M290.6,96.7l2.7-6.2l2.7,6.2H290.6L290.6,96.7z
		 M309.1,102.8h2.8v-13h4.9v-2.5h-12.6v2.5h4.9V102.8L309.1,102.8z M327.1,102.8h2.8v-13h4.9v-2.5h-12.6v2.5h4.9V102.8L327.1,102.8z
		 M340.7,102.8h2.7v-5.4h3.4l3.8,5.4h3.2l-4.2-5.9c2.2-0.6,3.7-2.2,3.7-4.7v0c0-1.4-0.5-2.5-1.3-3.4c-1-1-2.5-1.6-4.5-1.6h-6.9
		V102.8L340.7,102.8z M343.4,95v-5.2h4c2,0,3.2,0.9,3.2,2.6v0c0,1.6-1.2,2.6-3.2,2.6H343.4L343.4,95z M360.1,102.8h11.6v-2.4h-8.9
		v-4.2h7.8v-2.4h-7.8v-4h8.8v-2.4h-11.5V102.8L360.1,102.8z M383.8,103c3.3,0,5.6-1.7,5.6-4.6v0c0-2.6-1.7-3.8-5-4.6
		c-3-0.7-3.7-1.2-3.7-2.4v0c0-1,0.9-1.8,2.5-1.8c1.4,0,2.8,0.6,4.2,1.6l1.5-2.1c-1.6-1.3-3.4-2-5.6-2c-3.1,0-5.3,1.8-5.3,4.5v0
		c0,2.9,1.9,3.8,5.2,4.6c2.9,0.7,3.5,1.3,3.5,2.4v0c0,1.2-1.1,2-2.8,2c-1.9,0-3.4-0.7-4.9-2l-1.6,2C379.1,102.2,381.4,103,383.8,103
		L383.8,103z M401.2,103c3.3,0,5.6-1.7,5.6-4.6v0c0-2.6-1.7-3.8-5-4.6c-3-0.7-3.7-1.2-3.7-2.4v0c0-1,0.9-1.8,2.5-1.8
		c1.4,0,2.8,0.6,4.2,1.6l1.5-2.1c-1.6-1.3-3.4-2-5.6-2c-3.1,0-5.3,1.8-5.3,4.5v0c0,2.9,1.9,3.8,5.2,4.6c2.9,0.7,3.5,1.3,3.5,2.4v0
		c0,1.2-1.1,2-2.8,2c-1.9,0-3.4-0.7-4.9-2l-1.6,2C396.6,102.2,398.8,103,401.2,103L401.2,103z M413.3,102.8h11.6v-2.4H416v-4.2h7.8
		v-2.4H416v-4h8.8v-2.4h-11.5V102.8L413.3,102.8z M437,103c3.3,0,5.6-1.7,5.6-4.6v0c0-2.6-1.7-3.8-5-4.6c-3-0.7-3.7-1.2-3.7-2.4v0
		c0-1,0.9-1.8,2.5-1.8c1.4,0,2.8,0.6,4.2,1.6L442,89c-1.6-1.3-3.4-2-5.6-2c-3.1,0-5.3,1.8-5.3,4.5v0c0,2.9,1.9,3.8,5.2,4.6
		c2.9,0.7,3.5,1.3,3.5,2.4v0c0,1.2-1.1,2-2.8,2c-1.9,0-3.4-0.7-4.9-2l-1.6,2C432.3,102.2,434.6,103,437,103L437,103z"/>
	<path class="st0" d="M275.6,76.2"/>
	<path class="st0" d="M488.1,40.7c0-2.7,2.2-4.7,4.8-4.7c2.6,0,4.7,2,4.7,4.7c0,2.7-2.2,4.7-4.7,4.7
		C490.3,45.4,488.1,43.4,488.1,40.7L488.1,40.7z M496.7,40.7c0-2.2-1.7-3.9-3.8-3.9c-2.2,0-3.8,1.7-3.8,3.9c0,2.3,1.7,4,3.8,4
		C495,44.7,496.7,43,496.7,40.7L496.7,40.7z M491.9,43.5H491V38h2.1c1.3,0,1.9,0.5,1.9,1.6c0,1-0.6,1.4-1.3,1.5l1.5,2.4h-1l-1.5-2.4
		h-0.8V43.5L491.9,43.5z M491.9,40.4h0.9c1,0,1.4-0.1,1.4-0.9c0-0.6-0.3-0.8-1.2-0.8h-1.1V40.4L491.9,40.4z"/>
	<path class="st0" d="M276.7,40c-3.3,0.1-4.5,2-5,2.5c-2.5,3.8-4.1,8.6-5.4,11.5c0-0.1-5.1-8.7-5.7-10.1c6.7-5.8,6.7-10.6,6.6-13.1
		c0-1.5-0.7-3.4-2.2-4.9c-1.5-1.7-3.9-2.6-5.9-2.6c-4.4,0.3-6.5,4.6-6.5,4.6s-2.1,3.9-1.5,8.8c0.3,3,2.6,6.7,3.4,8.4
		c-3.8,2.7-6.2,5.5-7.5,9.1c-0.5,1.4-1.4,5.5,0.3,8.8c1.5,2.7,4.6,5.1,8.8,5.2c3.7,0.2,5.9-1.6,6.9-2.3c0.9-0.7,2-2.3,2.5-3.1
		c5.4,8,9.9,5.4,12.3,3.3c-0.5-0.5-1.3-1.1-1.8-1.6c-2.7,1.7-2.6,1.7-7.7-7c0.1-0.2,3.2-8.7,3.4-9.1c0.2-0.4,1.1-2.4,1.7-2.9
		c0.8-0.7,1.5-1,1.5-1s-0.1,1.5-0.1,1.8c0.1,0.3,0.1,2.7,2.8,3c2.7,0,3.5-2.8,3.5-3.7C281.5,43.8,279.9,39.8,276.7,40L276.7,40z
		 M259,41.1c0,0-0.6-1.4-1.5-3.1c-0.5-1.2-1-2.6-1.4-4.2c-0.9-4.1,0.7-7.5,2.9-7.6c2.8-0.2,3.6,3.6,3.3,7.6
		c-0.1,1.6-0.6,3.2-1.2,4.4C260,40.1,259,41.1,259,41.1L259,41.1z M263.7,60.4c-1.6,2.2-2.5,3.6-5.6,3.5c-1.9,0-5.6-0.9-5.7-6.8
		c0-4.8,1.9-7.3,3.9-9.4C256.7,48.6,260.7,56.1,263.7,60.4L263.7,60.4z"/>
	<path class="st0" d="M256.5,46.2"/>
	<path class="st0" d="M182.3,47.4c-0.9-3.5-3.2-6.6-6.3-8.6c-1.5-1-3.3-1.6-5.1-1.8c-1.8-0.2-3.6,0.1-5.3,0.7
		c-2.1,0.8-4.1,2.3-5.5,4c-2,2.5-3.2,5.6-3.6,8.8c-0.4,3.7,0.3,7.7,2.2,10.9c1.8,3.1,4.7,5.4,8.3,6.3c3.6,0.8,7.6-0.1,10.5-2.4
		c2.9-2.4,4.7-5.9,5.2-9.6C183.2,52.9,183,50.1,182.3,47.4 M176.7,55.4c-0.2,2.3-0.6,4.7-1.8,6.7c0,0,0,0,0-0.1
		c-0.6,1-1.2,1.9-2.3,2.5c-1.4,0.9-3.3,1-4.9,0.5c-2.4-0.7-3.8-3.2-4.4-5.4c-0.9-3.1-1-6.4-0.7-9.6c0.2-2.9,0.9-6,2.7-8.3
		c0,0,0,0,0,0c0.3-0.4,0.7-0.8,1.1-1.1c0,0,0.1,0,0,0c1.2-1,2.9-1.3,4.4-1c1.8,0.4,3.2,1.9,4,3.4c0,0,0,0,0,0
		c0.8,1.5,1.4,3.4,1.6,5.2C176.9,50.7,176.9,53.1,176.7,55.4"/>
	<path class="st0" d="M85,37.8l11.4,0c0,0,0,2.3,0,2.4c-1.2,0-1.8,0.4-2.1,0.6c-0.1,0.2-0.4,0.4-0.4,1.1c0,0.3,0.2,1.1,0.3,1.2
		c0.1,0.2,0.3,1.1,0.3,1.1L99,57.6l4.6-13c0,0,0.9-2.3,0.7-3.1c-0.1-0.7-0.4-0.9-0.5-1c-0.3-0.2-0.6-0.3-0.7-0.3
		c-0.4-0.1-1.9,0-1.9,0v-2.4h8.5v2.4c0,0-0.9,0-1.4,0.3c-0.4,0.2-0.7,0.7-0.9,1.4c-0.1,0.3-7,20.5-7.2,20.9
		c-0.6,1.8-1.3,3.8-2.4,6.3c-1.7,3.9-3.3,6.4-5.3,8.4c-0.9,0.7-2.3,2.3-4.8,2.3c-0.6,0-1.1-0.3-1.5-0.6c-0.8-0.5-1-1.3-1.1-1.8
		c-0.1-1,0.2-1.8,0.7-2.4c0.7-0.8,2.8-0.8,2.8-0.8s2.1-0.1,2.7-0.3c0.5-0.2,0.7-0.3,1.2-0.9c0.5-0.5,0.8-1.1,0.8-1.1
		s0.5-0.7,1.1-2.7c0.8-2.6,0.8-4.5,0.6-5.5c0-0.1-6.5-18.9-6.6-19.2c-0.5-1.5-0.9-2.5-1.1-2.8c-0.5-0.9-1-1.3-1-1.3
		s-0.4-0.3-0.9-0.4c-0.1,0-0.6,0-0.6,0V37.8L85,37.8z"/>
	<path class="st0" d="M84.7,62.9c-0.3,0.5-0.7,0.9-1,1.1c-0.5,0.3-1,0.2-1.4,0c-1-0.6-0.8-2.9-0.8-2.9s0-16.3,0-16.5
		c0-1.4-0.3-4-2.2-5.5c-2.1-1.9-5.3-2-7.3-2.1c-3-0.1-5.6,1-5.7,1c-0.9,0.4-2.6,1.3-3.7,3c-0.6,1.2-0.9,1.9-0.6,3.1
		c0.1,0.6,0.5,1.5,1.6,2c1,0.3,1.9-0.1,2.5-0.9c1.1-1.7,0.5-2.2,1.1-3.7c1-2.1,4.4-1.7,4.4-1.7s2.2-0.1,3.3,1.1
		c0.5,0.5,0.7,2.1,0.7,2.1s0,4.8,0,5.3c-6.4,2.8-9.7,5-11.6,7.1c-0.7,0.7-2.7,3.2-2.5,7.2c0.4,4.1,3.3,4.9,4.2,5.1
		c1.4,0.3,4.5,0,6.8-0.8c1.6-0.6,2.8-1.7,4-2.8c0.7,2.5,1.7,3.6,4.7,3.8c3.1,0,4.8-3.8,4.9-4.4C85.7,63.5,85,63.1,84.7,62.9
		L84.7,62.9z M75.4,60.9c0,0-1.9,3.2-5,3.3c-1.7,0.1-2.4-1.3-2.5-1.4c-1.2-2.5-0.2-5.4,0.5-6.5c0.3-0.6,0.9-1.3,2.2-2.1
		c1.2-0.8,2.8-1.6,4.9-2.7C75.4,51.9,75.4,60.9,75.4,60.9L75.4,60.9z"/>
	<path class="st0" d="M65.8,71.3c0,0-2.3,1-5.1-0.1c-1.6-0.6-3.4-3.5-3.8-4.6c-0.5-1.1-0.9-2.1-1.5-6c-0.5-4.4-2.2-7.7-2.2-7.7
		s-1-2.2-3.1-4c-1.1-1-2.6-1.9-3.9-2.5c4.2-2.2,5.8-4.6,6.5-7.2c0.4-1.4,0.5-3,0.5-4.4c0-2.8-1-6.3-3.3-8.2
		c-0.9-0.7-3.8-3.2-9.9-3.1c-0.9-0.1-7.4,0.3-9.9,0.3c-1.6,0-5.5-0.1-5.5-0.1v2.8c2.1,0,2.4,0,3.4,0.1c0.2,0,0.5,0.1,0.5,0.1
		s0.4,0.2,0.6,0.5c0.3,0.4,0.4,1,0.4,1.3c0,0,0,0.1,0,0.4c0,3.9,0,29.3,0,29.6c0,1.9,0.1,3.4-0.6,4.5c-0.7,1.4-3.2,1.1-4.2,1.2
		c0,0.2,0,3.2,0,3.2h16.1c0,0,0-2.8,0-3.2c-2-0.1-3.3,0-4.3-1.2c-0.5-0.6-0.7-1.7-0.7-1.7s-0.2-1.5-0.2-2.8c0-0.3,0-10.3,0-10.3h3.9
		c0,0,0.9,0,1.6,0c0.6,0.1,1.1,0,2.4,0.6c0.8,0.4,1.5,1,1.9,1.5c1.3,1.8,1.7,3.2,1.9,4.2c0.4,1.5,0.8,3.9,0.8,3.9s0.6,3.7,0.7,4.1
		c0.2,1,0.8,2.6,1.5,4.1c0.6,1.1,1.5,3.1,4.6,5.4c2.5,1.8,6.2,3.2,12.4,1.7C67.1,73.3,65.8,71.3,65.8,71.3L65.8,71.3z M44.9,40.7
		c-2.5,5.2-8.2,4.5-9.3,4.5c0-0.8,0-18.3,0-18.3s4.6-0.4,7.7,1.9C48.3,32.8,45.2,40.5,44.9,40.7L44.9,40.7z"/>
	<path class="st0" d="M124.1,65.1v2.3h-10.3c0,0,0-2.2,0-2.3c0.8,0,1.3-0.5,1.7-1c0.7-1.3,0.5-3,0.5-3s0-13.3,0-13.6
		c0-1.5,0-2.7-0.1-2.8c-0.3-2.1-0.7-2.4-0.9-2.7c-0.2-0.4-0.7-0.6-0.9-0.7c-0.2-0.1-0.9-0.1-0.9-0.1v-2.2c0,0,3.1,0.1,7.4-1.9
		c0,0.4,0.4,3.2,0.4,3.5c0.7-0.8,1.6-1.8,2.7-2.4c1.1-0.6,2.3-1,3.8-1.1c4.9-0.1,7.6,4.5,7.7,4.7c1.8-2.2,4.5-4.5,8.6-4.8
		c5.4-0.1,7.2,3.6,7.8,4.9c0.9,2.6,0.8,5.6,0.8,5.6v13.7c0,0-0.1,1.8,0.5,2.7c0.4,0.6,0.8,1.1,1.7,1.2c0,0.2,0,2.3,0,2.3h-10.4h0
		c0,0,0-1.9,0-2.3c1.5-0.3,1.8-1.2,2-2.1c0.2-0.9,0.2-1.8,0.2-1.8v-11c0,0,0.5-8.9-4.5-9.3c-4.7,0.1-4.9,7.6-4.8,9.3
		c0,1.5,0,10.9,0,11c0,0.4,0.1,1.5,0.2,1.8c0.2,0.9,0.8,2,2,2.1c0,0.1,0,2.3,0,2.3H129c0,0,0-1.9,0-2.3c0.5,0,1.7-0.2,2.1-2.2
		c0-0.1,0.1-0.8,0.2-1.7c0-0.1,0-9.9,0-11c0.2-7.5-2.9-9.1-4.5-9.3c-3.2,0.1-4.9,3.9-4.8,9.3c0,0.7,0,11,0,11s-0.1,1.7,0.5,2.7
		C123,64.9,124.1,65.1,124.1,65.1L124.1,65.1z"/>
	<path class="st0" d="M193.6,37.7h-9v2.4c0,0,1.6,0.1,2.3,0.6c0.5,0.4,0.6,1.3,0.6,1.3s0.2,1.7,0.2,2.7c0,0.3,0,12.5,0,13.8
		c-0.1,4.3,1,9.8,8.3,9.8c3.6,0.1,5.4-0.9,8.5-4.6c0.1,0.4,0.9,4.5,0.9,4.5l8-2.6c0,0,0-1.3,0-2c-1.7,0.1-2.4,0.1-2.9-0.5
		c-0.5-0.6-0.6-2-0.6-2l-0.1-2.7V37.7h-8.6c0,0,0,2.1,0,2.4c0.9,0,1.4,0.2,2,0.5c0.5,0.4,0.6,1.3,0.6,1.3s0.2,1.2,0.1,2.7
		c0,1,0,10.8,0,11c0,1.5-0.1,3.4-1.1,5.5c-1.2,2.7-4,3.4-4,3.4s-4.1,1.4-4.9-3.5c-0.1-0.5-0.2-2.8-0.2-2.8V37.7L193.6,37.7z"/>
	<path class="st0" d="M216.7,39c0,0.3,0,2.1,0,2.2c1.2-0.1,1.8,0.1,2,0.2c1.3,0.9,1.4,3.2,1.4,3.2s0.1,2.4,0.1,2.7
		c0,0.3,0,13.8,0,13.8s0,2.3-0.6,3c-0.1,0.2-0.6,1-2.2,1c0,0.2,0,2.2,0,2.2h12c0,0,0-1.5,0-2.2c-1.9,0.1-2.5-0.9-2.6-1.2
		c-0.2-0.3-0.6-1.3-0.5-2.7c0-0.4,0-12.5,0-12.5s-0.1-7.1,3.8-7.5c0.7-0.2,1.4-0.1,2,0.5c0.4,0.4,0.4,0.7,0.6,1.4
		c0.2,0.6,1.3,1.3,2.7,1c0.6-0.1,2.3-1,1.8-3.6c-0.1-0.9-1.4-3.8-5.6-3.5c-3.9,0.5-4.6,1.8-6.1,3.6c0-0.2-0.7-3.8-0.7-3.8
		S220.1,38.8,216.7,39L216.7,39z"/>
	<path class="st0" d="M459.8,62.9c-0.3,0.5-0.7,0.9-1,1.1c-0.5,0.3-1,0.2-1.4,0c-1-0.6-0.8-2.9-0.8-2.9s0-16.3,0-16.5
		c0-1.4-0.3-4-2.2-5.5c-2.1-1.9-5.3-2-7.3-2.1c-2.9-0.1-5.6,1-5.7,1c-0.9,0.4-2.6,1.3-3.7,3c-0.6,1.2-0.9,1.9-0.6,3.1
		c0.1,0.6,0.5,1.5,1.6,2c1,0.3,1.9-0.1,2.5-0.9c1.1-1.7,0.5-2.2,1.1-3.7c1-2.1,4.4-1.7,4.4-1.7s2.2-0.1,3.3,1.1
		c0.5,0.5,0.7,2.1,0.7,2.1s0,4.8,0,5.3c-6.4,2.8-9.7,5-11.6,7.1c-0.7,0.7-2.7,3.2-2.5,7.2c0.4,4.1,3.3,4.9,4.2,5.1
		c1.4,0.3,4.5,0,6.8-0.8c1.6-0.6,2.8-1.7,4-2.8c0.7,2.5,1.7,3.6,4.7,3.8c3.1,0,4.8-3.8,4.9-4.4C460.8,63.5,460.1,63.1,459.8,62.9
		L459.8,62.9z M450.4,60.9c0,0-1.9,3.2-5,3.3c-1.7,0.1-2.4-1.3-2.5-1.4c-1.2-2.5-0.2-5.4,0.5-6.5c0.3-0.6,0.9-1.3,2.2-2.1
		c1.2-0.8,2.8-1.6,4.9-2.7C450.4,51.9,450.4,60.9,450.4,60.9L450.4,60.9z"/>
	<path class="st0" d="M361.7,62.9c-0.3,0.5-0.7,0.9-1,1.1c-0.5,0.3-1,0.2-1.4,0c-1-0.6-0.8-2.9-0.8-2.9s0-16.3,0-16.5
		c0-1.4-0.3-4-2.2-5.5c-2.1-1.9-5.3-2-7.3-2.1c-3-0.1-5.6,1-5.7,1c-0.9,0.4-2.6,1.3-3.7,3c-0.6,1.2-0.9,1.9-0.6,3.1
		c0.1,0.6,0.5,1.5,1.6,2c1,0.3,1.9-0.1,2.5-0.9c1.1-1.7,0.5-2.2,1.1-3.7c1-2.1,4.4-1.7,4.4-1.7s2.2-0.1,3.3,1.1
		c0.5,0.5,0.7,2.1,0.7,2.1s0,4.8,0,5.3c-6.4,2.8-9.7,5-11.6,7.1c-0.7,0.7-2.7,3.2-2.5,7.2c0.4,4.1,3.3,4.9,4.2,5.1
		c1.4,0.3,4.5,0,6.8-0.8c1.6-0.6,2.8-1.7,4-2.8c0.7,2.5,1.7,3.6,4.7,3.8c3.1,0,4.8-3.8,4.9-4.4C362.7,63.5,362,63.1,361.7,62.9
		L361.7,62.9z M352.3,60.9c0,0-1.9,3.2-5,3.3c-1.7,0.1-2.4-1.3-2.5-1.4c-1.2-2.5-0.2-5.4,0.5-6.5c0.3-0.6,0.9-1.3,2.2-2.1
		c1.2-0.8,2.8-1.6,4.9-2.7C352.3,51.9,352.3,60.9,352.3,60.9L352.3,60.9z"/>
	<path class="st0" d="M291.3,26.3c0-0.6,0-2.8,0-2.8h27.3l0.8,10.2h-2.3c0,0-0.2-3.3-1.6-4.8c-1.4-1.4-4-1.6-5.9-1.7
		c-1.4-0.2-7.9-0.1-7.9-0.1v16.2c0,0,3.8,0.1,5.1-0.3c3.4-0.7,3-4.2,3.3-5.1c0.2,0,2,0,2,0v14.5c0,0-1.5,0-2.1,0
		c-0.4-1.8-0.8-4.4-3.3-5c-0.9-0.5-5.1-0.5-5.1-0.5s0,11.3,0,11.5c-0.1,2.5,0.2,4.6,0.9,5.5c1,1.2,3.2,1.1,3.6,1.1
		c0,0.1,0,2.3,0,2.3h-15c0,0,0-1.9,0-2.3c0.6,0,2.5,0,3.4-1.1c1.3-1.2,1.1-4.1,1.1-5.5c0-0.6,0-24.3,0-24.7c0-2.5,0.1-4.3-0.4-5.5
		c-0.5-1.1-1-1.5-2.3-1.8C292.7,26.3,291.6,26.3,291.3,26.3L291.3,26.3z"/>
	<path class="st0" d="M322.4,26.2v-2.3l9.3-1.9c0,0,0,38.8,0,39.1c0,0.8,0.1,1.7,0.5,2.7c0.2,0.5,0.7,0.9,1.2,1
		c0.5,0.1,1.4,0.1,1.4,0.1v2.2h-12.1V65c0,0,0.6,0,1.1-0.1c0.5-0.1,1.2-0.3,1.5-1.1c0.5-0.8,0.5-2.7,0.5-2.7s0-26.9,0-27.4
		c0-3.1-0.1-4.2-0.4-5.5c-0.2-0.8-0.6-1.3-1.2-1.6C323.4,26.1,322.4,26.2,322.4,26.2L322.4,26.2z"/>
	<path class="st0" d="M364.5,41.2c0-0.4,0-1.5,0-2.3c3.9-0.1,7.4-1.9,7.4-1.9s0.4,3.3,0.4,3.5c1.4-1.5,3-3.5,7.1-3.6
		c8,0.3,8.8,7.7,9,10.4c0,0.4,0.1,10.8,0,11.1c-0.1,3.1,0.1,4.7,0.5,5.4c0.5,0.8,1.2,1.2,1.7,1.2c0,0.3,0,2.3,0,2.3h-10.4
		c0,0,0-1.9,0-2.3c0.7-0.1,1.4-0.4,1.8-1.2c0.6-1.1,0.5-2.4,0.5-5.5c-0.1-4.7,0-10.1-0.2-11c-0.1-2-1.3-6.5-4.5-6.5
		c-3.3,0.1-4.4,4.5-4.6,6.5c-0.1,0.4-0.1,13.1-0.1,13.7c0,1.4,0.3,2.3,0.5,2.7c0.4,0.7,0.8,1.1,1.7,1.2c0,0.4,0,2.3,0,2.3h-10.3
		c0,0,0-1.9,0-2.3c1.1-0.1,1.4-0.5,1.7-1.2c0.3-0.7,0.4-1.3,0.5-2.7c0-0.6,0-13.3,0-13.7c0-3-0.1-4.4-1-5.5
		C365.8,41.2,365.2,41.1,364.5,41.2L364.5,41.2z"/>
	<path class="st0" d="M462.5,41.2c0-0.4,0-1.5,0-2.3c3.9-0.1,7.4-1.9,7.4-1.9s0.4,3.3,0.4,3.5c1.4-1.5,3-3.5,7.1-3.6
		c8,0.3,8.8,7.7,9,10.4c0,0.4,0.1,10.8,0,11.1c-0.1,3.1,0.1,4.7,0.5,5.4c0.5,0.8,1.2,1.2,1.7,1.2c0,0.3,0,2.3,0,2.3h-10.4
		c0,0,0-1.9,0-2.3c0.7-0.1,1.4-0.4,1.8-1.2c0.6-1.1,0.5-2.4,0.5-5.5c-0.1-4.7,0-10.1-0.2-11c-0.1-2-1.3-6.5-4.5-6.5
		c-3.3,0.1-4.4,4.5-4.6,6.5c-0.1,0.4-0.1,13.1-0.1,13.7c0,1.4,0.3,2.3,0.5,2.7c0.4,0.7,0.8,1.1,1.7,1.2c0,0.4,0,2.3,0,2.3h-10.3
		c0,0,0-1.9,0-2.3c1.1-0.1,1.4-0.5,1.7-1.2c0.3-0.7,0.4-1.3,0.5-2.7c0-0.6,0-13.3,0-13.7c0-3-0.1-4.4-1-5.5
		C463.7,41.2,463.1,41.1,462.5,41.2L462.5,41.2z"/>
	<path class="st0" d="M396.3,28.3c-0.1-2.2,1.6-4.3,3.7-4.3c2.2,0,3.7,2.2,3.6,4.3c0,3-2.1,4.4-3.6,4.4
		C398.3,32.6,396.3,31,396.3,28.3L396.3,28.3z"/>
	<path class="st0" d="M394.3,41.2c0-0.8,0-2,0-2l8.6-2.6c0,0,0,21.3,0,24.5c0,3.9,2.3,3.9,2.3,3.9v2.3h-10.4V65c0,0,2.2,0.2,2.2-3.9
		c0-0.6,0-15.7,0-16.5c0.1-2.1-0.3-2.6-0.7-3.1C396,41.4,395.8,41.1,394.3,41.2L394.3,41.2z"/>
	<path class="st0" d="M430.8,37c-2.1,0.1-4.1,1.8-5.3,2.6c-1.8-1.7-4.3-2.7-7.3-2.6c-9.2,0.5-9.9,8.2-10.1,10.9c0,6,3,8.3,5.3,9.4
		c-1.7,0.5-4.8,1.3-4.6,5.7c0.2,4.8,5.5,5,10.2,5.4c5.3,0.2,8.9,1,8.3,4.5c-0.5,2.9-4.6,4.9-8.4,4.5c-2.4-0.2-4.9-1.3-5.8-2.7
		c-0.6-0.8-0.9-2.2-0.3-3c0.8-0.8,1.5-0.6,1.7-1c0.2-0.9-4.8-2.5-6.1,1.3c-1,3.4,2.2,5.8,3.4,6.4c1.3,0.7,7,3.1,13.8,0.8
		c2.8-1,7.1-3.4,6.7-8.4c-0.2-10.5-14.6-7.8-17.7-8.7c-0.2,0-0.8-0.5-0.8-1.3c0.1-0.2,0.1-0.9,0.8-1.2c0.3-0.1,2.3-0.3,2.8-0.3
		c3.1,0,7.3,0.2,10.1-3.8c1.4-2,1.9-5.1,1.6-8.3c-0.2-3-0.9-4.7-1.8-5.7c0.2-0.1,1.1-0.6,1.8-0.4c1.1,0.1,1.3,1.2,1.9,1.8
		c0.2,0.2,0.7,0.5,1.3,0.4C435.6,43.2,435.5,37.1,430.8,37L430.8,37z M423.2,48.5c-0.1,4.2-1.3,8.3-4.8,8.2c-3.1,0-4.4-4.2-4.4-8.4
		c-0.1-4.6,1.4-8.7,4.4-8.6C421.8,39.7,423.4,43.7,423.2,48.5L423.2,48.5z"/>
</g>
</svg>
